<svg width="103" height="33" viewBox="0 0 103 33" fill="none" xmlns="http://www.w3.org/2000/svg">
<path fill-rule="evenodd" clip-rule="evenodd" d="M20.1711 2.22409L25.8464 5.37136H25.8431L27.5178 6.3013C29.523 7.41471 30.1255 9.01839 30.1255 11.1883V21.0318C30.1255 23.1985 29.5197 24.7959 27.5243 25.9156L17.9813 31.2644L17.8777 31.3213L17.7902 31.3688C15.9438 32.362 14.8068 32.653 12.8795 31.6724L12.86 31.6598L10.5472 30.3787L5.83398 27.7628L5.82426 27.7692L5.27682 27.456L4.57389 27.0638L4.58685 27.0575L2.59144 25.9093C0.615467 24.7706 0 23.1985 0 21.0318V11.1883C0 9.02155 0.60251 7.41471 2.60764 6.3013C5.89876 4.4762 9.18989 2.6511 12.4778 0.826001C14.7032 -0.407602 15.811 -0.189349 17.9878 1.01579C18.5417 1.32261 19.0957 1.62626 19.6463 1.93308L20.1711 2.22409ZM19.0698 2.92629L7.11026 10.0432C4.99176 11.3021 4.61924 11.7545 4.61924 14.3134V18.6215C4.61924 19.4597 4.49615 20.5447 5.09866 21.1077C5.88257 21.851 6.87703 21.3007 8.00755 20.6269C12.711 17.8276 17.4177 15.0283 22.1277 12.2289C23.459 11.4382 24.2397 11.8905 24.2397 13.4847C24.2397 15.4869 24.2397 17.486 24.2397 19.485C24.2397 19.8045 24.2332 20.1683 24.1198 20.4656C23.8542 21.1615 22.6362 21.8479 22.0208 22.2179C18.4284 24.353 14.836 26.4913 11.2468 28.6264L10.5277 29.0534L6.88027 27.029L19.0017 19.8172L19.1378 19.8994C19.3127 20.0006 19.5038 20.0544 19.7014 20.0544C20.3266 20.0544 20.8352 19.5325 20.8352 18.8904C20.8352 18.2451 20.3266 17.7232 19.7014 17.7232C19.1637 17.7232 18.6972 18.1186 18.5936 18.6626L18.5709 18.786L6.66324 25.8713C6.41381 26.02 6.16115 26.1718 5.9182 26.3331L5.78539 26.4185L3.18423 24.9224C1.61965 24.0209 1.18234 22.8474 1.16939 21.0318V20.9432V19.4566V11.2768V11.1883C1.18234 9.36949 1.60345 8.17385 3.18423 7.29451C6.47536 5.46941 9.76649 3.64431 13.0576 1.81921C14.7939 0.857632 15.4515 0.92722 17.4112 2.01216C17.9652 2.31898 18.5158 2.61947 19.0698 2.92629ZM20.1906 3.54942L23.5367 5.40615L21.9754 6.33293L19.3645 7.88601V7.88917C16.65 9.50234 13.9355 11.1187 11.2209 12.7319L11.0914 12.8109L10.9618 12.7413C10.8031 12.6591 10.6314 12.6148 10.4532 12.6148C9.82803 12.6148 9.31946 13.1399 9.31946 13.782C9.31946 14.4241 9.82803 14.9492 10.4532 14.9492C11.0201 14.9492 11.4995 14.5158 11.574 13.937L11.5902 13.8041L11.7068 13.7314C15.1761 11.6691 18.6454 9.60673 22.1115 7.54123C22.3058 7.42736 22.5099 7.30716 22.7204 7.18064L24.6575 6.02928L25.5354 6.51639L26.9412 7.29451C28.522 8.17385 28.9431 9.36949 28.9561 11.1883V11.2768V20.9432V21.0318C28.9431 22.8474 28.5155 24.0399 26.9412 24.9224L17.4048 30.268L17.3141 30.3186L17.2266 30.3661C15.5454 31.2802 14.8425 31.3814 13.4204 30.6571L11.6518 29.6733L12.0696 29.4235C15.5648 27.3421 19.0633 25.264 22.5617 23.1827C24.1911 22.2116 25.3184 21.6264 25.3184 19.485C25.3184 17.486 25.3184 15.4869 25.3184 13.4847C25.3184 11.0143 23.6534 10.0306 21.5834 11.2642C16.5399 14.266 11.5967 17.4164 6.45916 20.2632C6.05749 20.4877 5.66553 20.3454 5.66553 19.8899C5.66553 18.4823 5.70441 15.7115 5.70441 14.3134C5.70441 12.172 5.89229 12.0581 7.65122 11.008L20.1906 3.54942Z" fill="url(#paint0_linear)"/>
<path d="M44.3629 15.3696C44.3629 14.7111 44.1016 14.1833 43.5737 13.7861C43.0459 13.3837 42.2515 13.0701 41.1906 12.8454C40.1244 12.6207 39.2987 12.3646 38.7133 12.0719C38.128 11.7845 37.689 11.4239 37.4068 11.0058C37.1246 10.5824 36.9782 10.0755 36.9782 9.47449C36.9782 8.52854 37.3754 7.74984 38.1646 7.13314C38.9538 6.51645 39.9676 6.20811 41.201 6.20811C42.5337 6.20811 43.6103 6.53736 44.4151 7.19586C45.22 7.85959 45.6276 8.72191 45.6276 9.78283H44.3002C44.3002 9.08252 44.0075 8.50241 43.4169 8.03728C42.8316 7.57215 42.0947 7.34219 41.201 7.34219C40.3282 7.34219 39.6279 7.53556 39.1001 7.9223C38.5722 8.31427 38.3109 8.81599 38.3109 9.43268C38.3109 10.0337 38.5304 10.4988 38.9694 10.8281C39.4084 11.1573 40.208 11.4552 41.3735 11.7322C42.5337 12.004 43.4065 12.2966 43.9814 12.605C44.5667 12.9133 44.99 13.2896 45.2722 13.7234C45.5545 14.1572 45.6956 14.685 45.6956 15.3017C45.6956 16.3104 45.2879 17.1204 44.4674 17.7267C43.6521 18.3329 42.5912 18.6308 41.2742 18.6308C39.884 18.6308 38.7499 18.2963 37.8824 17.6221C37.0201 16.9427 36.5811 16.0909 36.5811 15.0561H37.9085C37.9608 15.8348 38.29 16.4358 38.891 16.8696C39.4921 17.3086 40.2864 17.5229 41.2742 17.5229C42.1992 17.5229 42.9414 17.319 43.5162 16.9114C44.0807 16.5037 44.3629 15.9916 44.3629 15.3696ZM50.1222 6.43283L50.164 8.37698C50.6082 7.65577 51.1622 7.11224 51.8259 6.75163C52.4896 6.39102 53.2265 6.20811 54.0418 6.20811C55.9285 6.20811 57.1305 6.98159 57.6374 8.53377C58.066 7.78642 58.6409 7.21154 59.3569 6.81435C60.0729 6.4067 60.862 6.20811 61.7243 6.20811C64.2956 6.20811 65.6022 7.60873 65.6544 10.4152V18.4061H64.327V10.5145C64.3218 9.44836 64.0918 8.6592 63.6319 8.13658C63.1772 7.61918 62.4403 7.3631 61.416 7.3631C60.4596 7.37878 59.6548 7.68712 59.0015 8.28814C58.343 8.88915 57.9771 9.62082 57.904 10.4884V18.4061H56.5765V10.4152C56.5713 9.39609 56.3257 8.62784 55.8501 8.12612C55.3745 7.61918 54.6428 7.3631 53.6498 7.3631C52.8189 7.3631 52.1029 7.6035 51.5071 8.07909C50.9113 8.55467 50.4671 9.26021 50.1744 10.2009V18.4061H48.847V6.43283H50.1222ZM76.8176 18.4061C76.6817 18.0298 76.5981 17.4706 76.5615 16.7337C76.0964 17.3399 75.5059 17.8103 74.7846 18.1395C74.0634 18.4688 73.3004 18.6308 72.4956 18.6308C71.351 18.6308 70.4155 18.312 69.7048 17.6692C68.9888 17.0264 68.6334 16.2163 68.6334 15.2338C68.6334 14.0683 69.1194 13.1433 70.0915 12.4639C71.0636 11.7845 72.4119 11.4448 74.147 11.4448H76.5511V10.0807C76.5511 9.22363 76.2898 8.54945 75.7567 8.05818C75.2341 7.56692 74.4606 7.32129 73.452 7.32129C72.5269 7.32129 71.7639 7.55124 71.1576 8.02683C70.5566 8.49196 70.2535 9.06162 70.2535 9.72012L68.9208 9.70967C68.9208 8.76372 69.3651 7.94321 70.2535 7.24812C71.1367 6.55826 72.2238 6.20811 73.5199 6.20811C74.8578 6.20811 75.9083 6.54258 76.6765 7.21154C77.45 7.88049 77.8472 8.80553 77.8681 10.0076V15.6728C77.8681 16.833 77.9935 17.7005 78.2339 18.2754V18.4061H76.8176ZM72.6576 17.4758C73.5408 17.4758 74.33 17.2615 75.0303 16.833C75.7254 16.4044 76.2323 15.8296 76.5511 15.1136V12.4639H74.1836C72.8614 12.4796 71.8266 12.7252 71.0793 13.1955C70.3371 13.6659 69.9661 14.3087 69.9661 15.1345C69.9661 15.8087 70.2117 16.3679 70.7082 16.8121C71.2099 17.2563 71.858 17.4758 72.6576 17.4758ZM88.8065 15.3696C88.8065 14.7111 88.5452 14.1833 88.0174 13.7861C87.4895 13.3837 86.6952 13.0701 85.6342 12.8454C84.5681 12.6207 83.7424 12.3646 83.157 12.0719C82.5717 11.7845 82.1327 11.4239 81.8505 11.0058C81.5683 10.5824 81.4219 10.0755 81.4219 9.47449C81.4219 8.52854 81.8191 7.74984 82.6083 7.13314C83.3974 6.51645 84.4061 6.20811 85.6447 6.20811C86.9774 6.20811 88.0487 6.53736 88.8588 7.19586C89.6636 7.85959 90.0713 8.72191 90.0713 9.78283H88.7438C88.7438 9.08252 88.4459 8.50241 87.8606 8.03728C87.2753 7.57215 86.5384 7.34219 85.6447 7.34219C84.7719 7.34219 84.0716 7.53556 83.5438 7.9223C83.0159 8.31427 82.7546 8.81599 82.7546 9.43268C82.7546 10.0337 82.9741 10.4988 83.4131 10.8281C83.8469 11.1573 84.6517 11.4552 85.8119 11.7322C86.9774 12.004 87.8449 12.2966 88.425 12.605C89.0051 12.9133 89.4337 13.2896 89.7159 13.7234C89.9981 14.1572 90.1392 14.685 90.1392 15.3017C90.1392 16.3104 89.7264 17.1204 88.9111 17.7267C88.0958 18.3329 87.0349 18.6308 85.7179 18.6308C84.3277 18.6308 83.1936 18.2963 82.326 17.6221C81.4585 16.9427 81.0247 16.0909 81.0247 15.0561H82.3522C82.4044 15.8348 82.7285 16.4358 83.3347 16.8696C83.9357 17.3086 84.7301 17.5229 85.7179 17.5229C86.6429 17.5229 87.385 17.319 87.9547 16.9114C88.5243 16.5037 88.8065 15.9916 88.8065 15.3696ZM94.6808 8.45538C95.1146 7.73938 95.6738 7.18541 96.3532 6.79344C97.0274 6.4067 97.7747 6.20811 98.5743 6.20811C99.86 6.20811 100.816 6.56871 101.444 7.29516C102.071 8.01637 102.389 9.0982 102.395 10.5459V18.4061H101.078V10.5406C101.072 9.46926 100.842 8.66965 100.398 8.15226C99.9488 7.62441 99.2381 7.3631 98.2555 7.3631C97.4402 7.3631 96.7138 7.61918 96.0814 8.13135C95.4491 8.64352 94.9839 9.33861 94.6808 10.2062V18.4061H93.3638V1.39999H94.6808V8.45538Z" fill="#989898"/>
<path d="M37.1298 30.3793H36.7692V23.1724H37.1298V30.3793ZM36.5811 20.9199C36.5811 20.8206 36.6176 20.7317 36.6908 20.6586C36.7587 20.5854 36.8476 20.5488 36.9521 20.5488C37.0514 20.5488 37.1403 20.5854 37.2134 20.6586C37.2866 20.7317 37.3232 20.8206 37.3232 20.9199C37.3232 21.0244 37.2866 21.108 37.2134 21.1812C37.1403 21.2491 37.0514 21.2857 36.9521 21.2857C36.8476 21.2857 36.7587 21.2491 36.6908 21.1812C36.6176 21.108 36.5811 21.0244 36.5811 20.9199Z" fill="#989898"/>
<path d="M39.8528 24.8448C40.088 24.2856 40.4329 23.8466 40.8928 23.5226C41.3475 23.1933 41.8544 23.0365 42.4136 23.0365C43.1871 23.0365 43.7568 23.2508 44.1331 23.6898C44.5093 24.1288 44.7027 24.7873 44.7027 25.6758V30.3794H44.3473V25.6601C44.3421 24.8866 44.1801 24.3169 43.8717 23.9459C43.5582 23.5748 43.0669 23.3867 42.3927 23.3867C41.7708 23.3867 41.2325 23.6114 40.7778 24.0504C40.3232 24.4946 40.0096 25.0643 39.8528 25.7594V30.3794H39.4922V23.1724H39.8528V24.8448Z" fill="#989898"/>
<path d="M47.3262 24.8448C47.5561 24.2856 47.9063 23.8466 48.361 23.5226C48.8209 23.1933 49.3278 23.0365 49.8818 23.0365C50.6553 23.0365 51.2302 23.2508 51.6064 23.6898C51.9827 24.1288 52.1709 24.7873 52.1761 25.6758V30.3794H51.8155V25.6601C51.8103 24.8866 51.6535 24.3169 51.3451 23.9459C51.0316 23.5748 50.5403 23.3867 49.8609 23.3867C49.239 23.3867 48.7007 23.6114 48.246 24.0504C47.7913 24.4946 47.483 25.0643 47.3262 25.7594V30.3794H46.9656V23.1724H47.3262V24.8448Z" fill="#989898"/>
<path d="M53.8904 26.6322C53.8904 25.9475 54.021 25.3256 54.2876 24.7769C54.5489 24.2281 54.9199 23.7996 55.406 23.4964C55.8868 23.1881 56.4303 23.0365 57.0418 23.0365C57.6428 23.0365 58.1863 23.1829 58.6671 23.4808C59.1479 23.7787 59.5242 24.202 59.7908 24.7455C60.0573 25.2943 60.1932 25.9109 60.1984 26.5956V26.9144C60.1984 27.6095 60.073 28.2262 59.8064 28.7749C59.5451 29.3184 59.1741 29.747 58.6933 30.0553C58.2072 30.3637 57.6637 30.5152 57.0522 30.5152C56.446 30.5152 55.9025 30.3637 55.4164 30.0606C54.9356 29.7574 54.5646 29.3341 54.2928 28.7906C54.0263 28.2471 53.8956 27.6356 53.8904 26.9562V26.6322ZM54.251 26.9144C54.251 27.5154 54.366 28.0641 54.6064 28.5659C54.8415 29.0676 55.176 29.4595 55.5993 29.7365C56.0227 30.0187 56.5087 30.1599 57.0522 30.1599C57.878 30.1599 58.5469 29.8515 59.0643 29.2296C59.5817 28.6129 59.843 27.8185 59.843 26.8412V26.6322C59.843 26.0416 59.7176 25.4928 59.4824 24.9911C59.242 24.4894 58.9075 24.0974 58.4842 23.81C58.0609 23.5278 57.5801 23.3867 57.0418 23.3867C56.2213 23.3867 55.5471 23.7055 55.0297 24.3326C54.5071 24.9598 54.251 25.7489 54.251 26.7001V26.9144Z" fill="#989898"/>
<path d="M63.9719 29.8045L66.5641 23.1724H66.9508L64.1443 30.3793H63.7942L60.9929 23.1724H61.3797L63.9719 29.8045Z" fill="#989898"/>
<path d="M72.924 30.3794C72.8352 30.071 72.7933 29.632 72.7933 29.0623C72.5111 29.5223 72.1192 29.8829 71.6279 30.1337C71.1314 30.3846 70.5774 30.5152 69.9555 30.5152C69.2866 30.5152 68.7535 30.3323 68.3458 29.9717C67.9382 29.6111 67.7344 29.1355 67.7344 28.5554C67.7344 27.8917 68.0323 27.3586 68.6333 26.9614C69.2291 26.5642 70.0235 26.3604 71.0112 26.3499H72.7933V25.2995C72.7933 24.6932 72.6052 24.2229 72.2237 23.8884C71.8422 23.5539 71.2987 23.3867 70.5931 23.3867C69.9346 23.3867 69.3859 23.5592 68.9469 23.8989C68.5079 24.2333 68.2884 24.6514 68.2884 25.1479L67.9278 25.1375C67.9278 24.5521 68.1838 24.0556 68.7012 23.648C69.2134 23.2404 69.8458 23.0365 70.5931 23.0365C71.3718 23.0365 71.9885 23.2299 72.4484 23.6166C72.9031 24.0034 73.1383 24.5521 73.154 25.2577V28.707C73.154 29.4961 73.2167 30.0344 73.3421 30.3166V30.3794H72.924ZM69.9555 30.1599C70.6297 30.1599 71.2098 30.0083 71.6958 29.7052C72.1819 29.4021 72.5477 28.9735 72.7933 28.4247V26.7053H71.1262C70.0966 26.7053 69.3075 26.9091 68.7587 27.322C68.3145 27.6565 68.095 28.0746 68.095 28.5763C68.095 29.0153 68.2674 29.3916 68.6228 29.6999C68.973 30.0031 69.4172 30.1599 69.9555 30.1599Z" fill="#989898"/>
<path d="M76.2742 21.2178V23.1724H77.9152V23.5278H76.2742V28.6547C76.2742 29.1669 76.3578 29.5484 76.5251 29.7888C76.6923 30.0344 76.9693 30.1598 77.3613 30.1598C77.5598 30.1598 77.795 30.1389 78.072 30.1024L78.1347 30.4368C77.9884 30.4891 77.7375 30.5152 77.3822 30.5152C76.8595 30.5152 76.4833 30.3689 76.2533 30.0762C76.0286 29.7888 75.9136 29.3289 75.9084 28.6965V23.5278H74.5757V23.1724H75.9084V21.2178H76.2742Z" fill="#989898"/>
<path d="M80.2357 30.3793H79.8751V23.1724H80.2357V30.3793ZM79.6921 20.9199C79.6921 20.8206 79.7235 20.7317 79.7967 20.6586C79.8698 20.5854 79.9534 20.5488 80.058 20.5488C80.1573 20.5488 80.2461 20.5854 80.3193 20.6586C80.3924 20.7317 80.429 20.8206 80.429 20.9199C80.429 21.0244 80.3924 21.108 80.3193 21.1812C80.2461 21.2491 80.1573 21.2857 80.058 21.2857C79.9534 21.2857 79.8698 21.2491 79.7967 21.1812C79.7235 21.108 79.6921 21.0244 79.6921 20.9199Z" fill="#989898"/>
<path d="M82.0544 26.6322C82.0544 25.9475 82.1851 25.3256 82.4516 24.7769C82.7129 24.2281 83.084 23.7996 83.57 23.4964C84.0509 23.1881 84.5996 23.0365 85.2058 23.0365C85.8121 23.0365 86.3504 23.1829 86.8312 23.4808C87.312 23.7787 87.6883 24.202 87.9548 24.7455C88.2214 25.2943 88.3625 25.9109 88.3625 26.5956V26.9144C88.3625 27.6095 88.237 28.2262 87.9705 28.7749C87.7092 29.3184 87.3381 29.747 86.8573 30.0553C86.3765 30.3637 85.8278 30.5152 85.2163 30.5152C84.6101 30.5152 84.0665 30.3637 83.5805 30.0606C83.0997 29.7574 82.7286 29.3341 82.4569 28.7906C82.1903 28.2471 82.0597 27.6356 82.0544 26.9562V26.6322ZM82.415 26.9144C82.415 27.5154 82.53 28.0641 82.7704 28.5659C83.0056 29.0676 83.3401 29.4595 83.7634 29.7365C84.1867 30.0187 84.6728 30.1599 85.2163 30.1599C86.042 30.1599 86.711 29.8515 87.2284 29.2296C87.7458 28.6129 88.0071 27.8185 88.0071 26.8412V26.6322C88.0071 26.0416 87.8869 25.4928 87.6465 24.9911C87.4061 24.4894 87.0716 24.0974 86.6483 23.81C86.225 23.5278 85.7441 23.3867 85.2058 23.3867C84.3853 23.3867 83.7111 23.7055 83.1938 24.3326C82.6711 24.9598 82.415 25.7489 82.415 26.7001V26.9144Z" fill="#989898"/>
<path d="M90.4739 24.8448C90.7038 24.2856 91.054 23.8466 91.5087 23.5226C91.9686 23.1933 92.4755 23.0365 93.0295 23.0365C93.803 23.0365 94.3779 23.2508 94.7541 23.6898C95.1304 24.1288 95.3186 24.7873 95.3238 25.6758V30.3794H94.9632V25.6601C94.958 24.8866 94.8012 24.3169 94.4928 23.9459C94.1793 23.5748 93.688 23.3867 93.0086 23.3867C92.3867 23.3867 91.8484 23.6114 91.3937 24.0504C90.939 24.4946 90.6307 25.0643 90.4739 25.7594V30.3794H90.1133V23.1724H90.4739V24.8448Z" fill="#989898"/>
<path d="M102.034 28.6181C102.034 27.7401 101.287 27.1443 99.7921 26.8255C98.8932 26.6374 98.2713 26.3918 97.9211 26.0939C97.571 25.7907 97.3933 25.3779 97.3933 24.8552C97.3933 24.3274 97.618 23.8884 98.0675 23.5487C98.5117 23.2038 99.0918 23.0365 99.8078 23.0365C100.587 23.0365 101.208 23.2194 101.679 23.5905C102.149 23.9616 102.39 24.4633 102.39 25.0957H102.018C102.018 24.6096 101.815 24.202 101.407 23.8779C100.999 23.5539 100.466 23.3867 99.8078 23.3867C99.1754 23.3867 98.6789 23.5278 98.3079 23.8048C97.942 24.0765 97.7539 24.4215 97.7539 24.8343C97.7539 25.1636 97.8218 25.4145 97.9629 25.5974C98.0988 25.7855 98.3236 25.9528 98.6319 26.0991C98.9455 26.2506 99.4001 26.3918 99.9959 26.5276C100.592 26.6687 101.062 26.8308 101.407 27.0189C101.752 27.2018 102.003 27.4265 102.16 27.6774C102.316 27.9387 102.395 28.2471 102.395 28.6181C102.395 29.1878 102.16 29.6477 101.694 29.9926C101.229 30.3428 100.618 30.5152 99.8601 30.5152C99.05 30.5152 98.4019 30.3323 97.9055 29.9665C97.409 29.5954 97.1633 29.1251 97.1633 28.5502H97.5239C97.5553 29.0571 97.78 29.4543 98.1877 29.7365C98.6005 30.0187 99.1597 30.1599 99.8601 30.1599C100.503 30.1599 101.026 30.0083 101.428 29.7104C101.83 29.4073 102.034 29.0467 102.034 28.6181Z" fill="#989898"/>
<defs>
<linearGradient id="paint0_linear" x1="29.5068" y1="10.9732" x2="0.784187" y2="21.739" gradientUnits="userSpaceOnUse">
<stop stop-color="#22D4EC"/>
<stop offset="1" stop-color="#5EE7BF"/>
</linearGradient>
</defs>
</svg>
